<svg width="90" height="17" fill="none" xmlns="http://www.w3.org/2000/svg"><path d="m9 0 2.1 6.5H18l-5.6 4 2.2 6.5L9 13l-5.6 4 2.2-6.5-5.6-4h6.9L9 0Z" fill="#83B3D3"/><g clip-path="url(#a)"><path d="m33 0 2.1 6.5H42l-5.6 4 2.2 6.5-5.6-4-5.6 4 2.2-6.5-5.6-4h6.9L33 0Z" fill="#83B3D3"/></g><g clip-path="url(#b)"><path d="m57 0 2.1 6.5H66l-5.6 4 2.2 6.5-5.6-4-5.6 4 2.2-6.5-5.6-4h6.9L57 0Z" fill="#83B3D3"/></g><g clip-path="url(#c)"><path d="m81 0 2.1 6.5H90l-5.6 4 2.2 6.5-5.6-4-5.6 4 2.2-6.5-5.6-4h6.9L81 0Z" fill="#83B3D3"/></g><defs><clipPath id="a"><path fill="#fff" transform="translate(24)" d="M0 0h18v17H0z"/></clipPath><clipPath id="b"><path fill="#fff" transform="translate(48)" d="M0 0h18v17H0z"/></clipPath><clipPath id="c"><path fill="#fff" transform="translate(72)" d="M0 0h18v17H0z"/></clipPath></defs></svg>